<svg xmlns="http://www.w3.org/2000/svg" width="24" height="24" fill="none"><path fill="#333" d="M12.1 22a9.76 9.76 0 0 1-3.938-.8 10.278 10.278 0 0 1-3.199-2.162A10.28 10.28 0 0 1 2.8 15.837 9.752 9.752 0 0 1 2 11.9c0-2.433.775-4.58 2.325-6.438C5.875 3.604 7.85 2.45 10.25 2c-.3 1.65-.208 3.262.275 4.837a9.866 9.866 0 0 0 2.5 4.138 9.866 9.866 0 0 0 4.138 2.5c1.575.483 3.187.575 4.837.275-.433 2.4-1.583 4.375-3.45 5.925C16.683 21.225 14.533 22 12.1 22Zm0-2a7.912 7.912 0 0 0 4.075-1.1 7.914 7.914 0 0 0 2.95-3.025 12.412 12.412 0 0 1-4.075-1.087 11.891 11.891 0 0 1-3.45-2.413 12.087 12.087 0 0 1-2.425-3.45A11.804 11.804 0 0 1 8.1 4.85a7.795 7.795 0 0 0-3.012 2.962A8.048 8.048 0 0 0 4 11.9c0 2.25.788 4.162 2.363 5.737C7.938 19.212 9.85 20 12.1 20Z"/></svg>