<svg xmlns="http://www.w3.org/2000/svg" width="24" height="24" fill="none"><path fill="#333" d="M11 6V2h2v4h-2Zm6.65 2.75-1.4-1.4 2.825-2.85 1.4 1.425L17.65 8.75ZM19 14v-2h4v2h-4Zm.075 7.475L16.25 18.65l1.4-1.4 2.85 2.8-1.425 1.425ZM6.35 8.75 3.525 5.925 4.95 4.5l2.8 2.85-1.4 1.4ZM6 20h4.5c.417 0 .77-.146 1.062-.438.292-.291.438-.645.438-1.062 0-.417-.142-.77-.425-1.062a1.405 1.405 0 0 0-1.05-.438H9.25l-.5-1.2c-.233-.55-.6-.987-1.1-1.312A2.964 2.964 0 0 0 6 14c-.833 0-1.542.292-2.125.875A2.893 2.893 0 0 0 3 17c0 .833.292 1.542.875 2.125A2.893 2.893 0 0 0 6 20Zm0 2c-1.383 0-2.562-.487-3.537-1.462C1.488 19.563 1 18.383 1 17s.488-2.563 1.463-3.538C3.438 12.487 4.617 12 6 12c1 0 1.913.27 2.738.812A4.911 4.911 0 0 1 10.575 15c.967 0 1.779.358 2.437 1.075.659.717.988 1.575.988 2.575-.033.95-.387 1.746-1.062 2.388-.675.641-1.488.962-2.438.962H6Zm8-3.35a81.897 81.897 0 0 0-.25-.975 81.897 81.897 0 0 1-.25-.975 4.078 4.078 0 0 0 1.812-1.475A3.837 3.837 0 0 0 16 13c0-1.1-.392-2.042-1.175-2.825C14.042 9.392 13.1 9 12 9c-1 0-1.875.325-2.625.975-.75.65-1.192 1.475-1.325 2.475a18.555 18.555 0 0 0-1.025-.225c-.35-.067-.692-.142-1.025-.225.233-1.467.92-2.667 2.062-3.6C9.204 7.467 10.517 7 12 7c1.667 0 3.083.583 4.25 1.75C17.417 9.917 18 11.333 18 13a5.805 5.805 0 0 1-1.1 3.462A5.978 5.978 0 0 1 14 18.65Z"/></svg>