<svg xmlns="http://www.w3.org/2000/svg" width="24" height="24" fill="none"><path fill="#333" d="M13 19v4h-2v-4h2Zm-6.65-2.75 1.375 1.375-2.8 2.875-1.4-1.425L6.35 16.25ZM5 11v2H1v-2h4Zm8-10v4h-2V1h2Zm4.65 15.3 2.85 2.775-1.425 1.4-2.825-2.825 1.4-1.35ZM4.95 3.5l2.775 2.875-1.35 1.35-2.85-2.75L4.95 3.5ZM23 11v2h-4v-2h4Zm-3.925-7.5 1.4 1.425-2.8 2.8-.725-.675-.725-.7 2.85-2.85ZM12 6c1.667 0 3.083.583 4.25 1.75C17.417 8.917 18 10.333 18 12c0 1.667-.583 3.083-1.75 4.25C15.083 17.417 13.667 18 12 18c-1.667 0-3.083-.583-4.25-1.75C6.583 15.083 6 13.667 6 12c0-1.667.583-3.083 1.75-4.25C8.917 6.583 10.333 6 12 6Zm0 2c-1.1 0-2.042.392-2.825 1.175C8.392 9.958 8 10.9 8 12s.392 2.042 1.175 2.825C9.958 15.608 10.9 16 12 16s2.042-.392 2.825-1.175C15.608 14.042 16 13.1 16 12s-.392-2.042-1.175-2.825C14.042 8.392 13.1 8 12 8Z"/></svg>