<svg xmlns="http://www.w3.org/2000/svg" width="24" height="24" fill="none"><path fill="#333" d="m11.55 23 2.35-2.675-2-1L14.8 16h2.65l-2.35 2.675 2 1L14.2 23h-2.65Zm-6 0 2.35-2.675-2-1L8.8 16h2.65L9.1 18.675l2 1L8.2 23H5.55Zm1.95-8c-1.517 0-2.812-.538-3.887-1.613C2.538 12.312 2 11.017 2 9.5c0-1.383.458-2.592 1.375-3.625s2.05-1.642 3.4-1.825a5.88 5.88 0 0 1 2.188-2.238A5.903 5.903 0 0 1 12 1c1.5 0 2.804.48 3.912 1.438 1.109.958 1.78 2.154 2.013 3.587 1.15.1 2.117.575 2.9 1.425C21.608 8.3 22 9.317 22 10.5c0 1.25-.437 2.313-1.312 3.188S18.75 15 17.5 15h-10Zm0-2h10c.7 0 1.292-.242 1.775-.725.483-.483.725-1.075.725-1.775s-.242-1.292-.725-1.775C18.792 8.242 18.2 8 17.5 8H16V7c0-1.1-.392-2.042-1.175-2.825C14.042 3.392 13.1 3 12 3c-.8 0-1.53.217-2.188.65A4.063 4.063 0 0 0 8.325 5.4l-.25.6H7.45a3.506 3.506 0 0 0-2.437 1.062A3.324 3.324 0 0 0 4 9.5c0 .967.342 1.792 1.025 2.475A3.372 3.372 0 0 0 7.5 13Z"/></svg>