<svg xmlns="http://www.w3.org/2000/svg" width="24" height="24" fill="none"><g clip-path="url(#a)"><path fill="#333" d="M20.524 2H3.476C2.661 2 2 2.661 2 3.476v17.048C2 21.339 2.661 22 3.476 22h17.048c.815 0 1.476-.661 1.476-1.476V3.476C22 2.661 21.339 2 20.524 2ZM7.96 19.039H4.954V9.486h3.007v9.553ZM6.458 8.164c-.957 0-1.733-.73-1.733-1.726 0-.998.776-1.727 1.733-1.727.957 0 1.734.73 1.734 1.726 0 .998-.777 1.727-1.734 1.727Zm12.588 10.882h-3.007v-5.217c0-1.539-.654-2.014-1.499-2.014-.891 0-1.766.671-1.766 2.053v5.18H9.767V9.492h2.891v1.324h.04c.29-.588 1.306-1.592 2.858-1.592 1.677 0 3.49.996 3.49 3.912v5.909Z"/></g><defs><clipPath id="a"><path fill="#fff" d="M2 2h20v20H2z"/></clipPath></defs></svg>