<svg xmlns="http://www.w3.org/2000/svg" width="24" height="24" fill="none"><path fill="#333" d="M21.928 16.628c-.139-.384-.403-.59-.705-.76a1.739 1.739 0 0 0-.153-.081c-.09-.048-.182-.093-.273-.142-.94-.505-1.674-1.143-2.183-1.9a4.335 4.335 0 0 1-.374-.674c-.044-.127-.042-.198-.01-.264a.426.426 0 0 1 .12-.127l.44-.292c.202-.133.361-.237.464-.312.386-.273.656-.565.824-.89a1.794 1.794 0 0 0 .087-1.472c-.256-.683-.891-1.107-1.66-1.107a2.253 2.253 0 0 0-.61.082c.007-.467-.003-.96-.044-1.445-.145-1.705-.733-2.599-1.346-3.312a5.382 5.382 0 0 0-1.37-1.118C14.206 2.274 13.15 2 12 2c-1.15 0-2.2.274-3.132.814a5.362 5.362 0 0 0-1.371 1.12c-.614.713-1.202 1.609-1.347 3.312-.04.485-.051.98-.044 1.445a2.254 2.254 0 0 0-.609-.082c-.77 0-1.406.424-1.66 1.107a1.8 1.8 0 0 0 .084 1.474c.169.325.439.616.824.89.103.073.262.178.464.312.109.071.268.176.423.28.055.036.101.084.136.14.033.067.034.14-.014.275-.104.231-.227.452-.369.66-.498.74-1.21 1.367-2.12 1.868-.481.26-.982.433-1.194 1.017-.16.44-.055.941.35 1.364.15.157.322.29.511.393.395.22.815.39 1.25.507a.82.82 0 0 1 .253.115c.148.131.127.329.324.619.098.15.224.279.37.381.412.29.876.308 1.368.327.444.017.947.037 1.522.23.238.08.486.234.772.415C9.48 21.413 10.421 22 12 22c1.577 0 2.526-.59 3.22-1.022.284-.178.53-.33.761-.408.575-.193 1.078-.213 1.522-.23.492-.019.956-.037 1.369-.327.172-.122.316-.281.42-.466.142-.245.139-.416.272-.535a.78.78 0 0 1 .237-.11 5.51 5.51 0 0 0 1.267-.512c.202-.11.383-.255.537-.427l.005-.006c.38-.413.475-.9.32-1.33Zm-1.401.764c-.855.48-1.423.428-1.865.717-.376.246-.154.775-.427.966-.335.235-1.325-.017-2.605.412-1.056.355-1.73 1.374-3.629 1.374-1.898 0-2.556-1.017-3.63-1.376-1.277-.43-2.27-.178-2.605-.413-.273-.19-.051-.72-.426-.965-.443-.29-1.011-.238-1.866-.715-.544-.305-.235-.494-.054-.583 3.097-1.522 3.591-3.872 3.613-4.047.027-.21.056-.377-.173-.592-.22-.207-1.203-.824-1.475-1.017-.45-.32-.649-.639-.503-1.03.102-.272.352-.374.613-.374.083 0 .166.01.246.028.495.109.975.36 1.253.428a.436.436 0 0 0 .102.014c.148 0 .2-.076.19-.248-.032-.55-.108-1.62-.023-2.62.117-1.378.554-2.06 1.073-2.664.25-.29 1.421-1.547 3.662-1.547 2.24 0 3.415 1.252 3.665 1.541.52.604.957 1.286 1.073 2.663.085 1 .011 2.072-.023 2.62-.012.182.042.249.19.249a.425.425 0 0 0 .102-.014c.278-.068.758-.32 1.253-.429.08-.018.163-.027.246-.028.263 0 .51.104.613.374.146.392-.051.711-.502 1.03-.273.194-1.254.81-1.475 1.018-.23.215-.2.381-.173.592.022.177.515 2.527 3.613 4.047.182.093.491.282-.053.59Z"/></svg>