<svg xmlns="http://www.w3.org/2000/svg" width="24" height="24" fill="none"><g clip-path="url(#a)"><path fill="#333" d="M18.46 5.808a4.55 4.55 0 0 1-2.044-2.98A4.435 4.435 0 0 1 16.337 2h-3.351l-.006 13.091c-.056 1.466-1.294 2.643-2.812 2.643-.471 0-.916-.115-1.306-.316-.897-.46-1.51-1.376-1.51-2.43 0-1.514 1.263-2.746 2.816-2.746.29 0 .568.046.832.127V9.034a6.304 6.304 0 0 0-.832-.059C6.768 8.975 4 11.673 4 14.988c0 2.034 1.043 3.834 2.634 4.922A6.243 6.243 0 0 0 10.169 21c3.401 0 6.168-2.697 6.168-6.012V8.35A8.11 8.11 0 0 0 21 9.81V6.544a4.72 4.72 0 0 1-2.54-.736Z"/></g><defs><clipPath id="a"><path fill="#fff" d="M4 2h17v19H4z"/></clipPath></defs></svg>