<svg xmlns="http://www.w3.org/2000/svg" width="24" height="24" fill="none"><g clip-path="url(#a)"><path fill="#333" d="M19.9 7.274c.011.181.011.362.011.544 0 5.561-4.097 11.975-11.588 11.975v-.004a11.26 11.26 0 0 1-6.242-1.887c.321.04.645.06.969.061a8.011 8.011 0 0 0 5.058-1.805c-1.743-.034-3.27-1.208-3.805-2.922.61.121 1.24.096 1.839-.073-1.9-.396-3.267-2.121-3.267-4.125v-.053c.566.326 1.2.507 1.848.527-1.79-1.236-2.34-3.696-1.26-5.62C5.53 6.522 8.58 8.12 11.856 8.29a4.301 4.301 0 0 1 1.179-4.02 3.985 3.985 0 0 1 5.762.182 8.014 8.014 0 0 0 2.586-1.022 4.203 4.203 0 0 1-1.79 2.328 7.896 7.896 0 0 0 2.338-.663 8.43 8.43 0 0 1-2.032 2.18Z"/></g><defs><clipPath id="a"><path fill="#fff" d="M2 3h20v17H2z"/></clipPath></defs></svg>